<svg width="383" height="423" viewBox="0 0 383 423" fill="none" xmlns="http://www.w3.org/2000/svg">
<path d="M263.351 31.8654C241.677 18.396 216.103 10.6094 188.705 10.6094C160.517 10.6094 134.253 18.8467 112.188 33.0427L188.705 152.232L263.351 31.8654Z" fill="#E3372D"/>
<path d="M263.351 31.8653L267.401 25.3453C244.561 11.1466 217.563 2.92929 188.705 2.93195C159.015 2.92929 131.289 11.62 108.035 26.5866C104.469 28.8813 103.439 33.6213 105.729 37.1893L182.245 156.38C183.673 158.604 186.123 159.929 188.765 159.909C191.408 159.888 193.836 158.524 195.229 156.279L269.873 35.9107C272.108 32.308 271.003 27.5826 267.401 25.3453L263.351 31.8653L256.827 27.82L188.593 137.848L118.648 28.896L112.188 33.0426L116.343 39.4986C137.219 26.0706 162.019 18.288 188.705 18.2853C214.641 18.288 238.792 25.6467 259.299 38.3853L263.351 31.8653L256.827 27.82L263.351 31.8653" fill="#E3372D"/>
<path d="M268.949 22.8546C245.664 8.37729 218.121 -0.00399943 188.705 5.67405e-07C158.441 -0.00399943 130.156 8.85995 106.448 24.1213C101.521 27.2906 100.097 33.856 103.267 38.7827C106.437 43.7107 113.001 45.1347 117.929 41.964C138.351 28.8307 162.592 21.2213 188.705 21.2173C214.084 21.2213 237.691 28.416 257.751 40.876C262.727 43.968 269.268 42.4413 272.36 37.4653C275.453 32.4893 273.925 25.948 268.949 22.8546" fill="#EBA634"/>
<path d="M164.025 57.612C161.268 60.3706 159.891 63.6586 159.891 67.4786C159.891 71.3 161.268 74.5493 164.025 77.2266C165.364 78.5666 172.415 86.3653 185.177 100.623C185.491 100.939 185.885 101.095 186.357 101.095C186.831 101.095 187.263 100.939 187.657 100.623C201.601 85.5773 208.649 77.936 208.808 77.7C211.565 75.0226 212.944 71.7533 212.944 67.892C212.944 64.0333 211.604 60.764 208.927 58.0853C206.169 55.408 203.057 54.0666 199.592 54.0666C196.677 54.0666 193.171 56.1546 189.075 60.3293L186.476 62.9293L183.759 60.3293C179.505 56.1546 175.961 54.0666 173.125 54.0666C169.42 54.0666 166.389 55.2493 164.025 57.612" fill="#B92926"/>
<path d="M188.705 213.643H47.0827V213.644C47.0827 264.464 73.8547 309.021 114.06 334.009L188.705 213.643" fill="#E08C1B"/>
<path d="M188.705 213.643H330.328C330.328 162.824 303.555 118.265 263.351 93.28L188.705 213.643Z" fill="#E08C1B"/>
<path d="M340.936 213.643C340.94 186.364 333.737 160.687 321.139 138.531C308.539 116.369 290.556 97.6987 268.949 84.2694C263.973 81.176 257.432 82.704 254.34 87.68C251.247 92.656 252.773 99.1974 257.751 102.289C276.348 113.847 291.855 129.948 302.693 149.016C313.531 168.091 319.716 190.103 319.719 213.643C319.719 219.501 324.469 224.252 330.328 224.252C336.187 224.252 340.937 219.501 340.937 213.643" fill="#EBA634"/>
<path d="M114.06 334.009C135.735 347.481 161.308 355.267 188.704 355.267C216.893 355.267 243.155 347.031 265.223 332.835L188.705 213.643L114.06 334.009Z" fill="#E08C1B"/>
<path d="M188.705 213.643L265.223 332.835C304.385 307.64 330.328 263.673 330.328 213.644V213.643H188.705Z" fill="#E08C1B"/>
<path d="M47.0827 213.643H188.705L112.188 94.4534" fill="#E08C1B"/>
<path d="M112.188 94.4534C73.024 119.648 47.0827 163.615 47.0827 213.643Z" fill="#E08C1B"/>
<path d="M108.036 87.9973C87.3933 101.277 70.2453 119.492 58.2467 140.995C46.2467 162.492 39.404 187.297 39.4067 213.643C39.4067 217.883 42.844 221.319 47.0827 221.319C51.3227 221.319 54.76 217.883 54.76 213.643C54.7613 189.96 60.8907 167.767 71.652 148.476C82.4147 129.189 97.8186 112.824 116.341 100.908C119.907 98.6147 120.939 93.8654 118.644 90.3C116.351 86.7347 111.601 85.7027 108.036 87.9973" fill="#B92926"/>
<path d="M106.449 85.5307C85.4027 99.072 67.9213 117.64 55.6853 139.565C43.4493 161.485 36.472 186.789 36.4747 213.643C36.4747 219.501 41.224 224.252 47.0827 224.252C52.9427 224.252 57.692 219.501 57.692 213.643C57.6947 190.468 63.688 168.775 74.2133 149.905C84.7387 131.041 99.8107 115.029 117.928 103.375C122.856 100.205 124.28 93.64 121.111 88.7134C117.94 83.7854 111.376 82.3614 106.449 85.5307Z" fill="#EBA634"/>
<path d="M108.459 343.019C131.748 357.5 159.291 365.879 188.704 365.875C218.968 365.879 247.252 357.016 270.963 341.756C292.008 328.216 309.488 309.647 321.725 287.721C333.961 265.803 340.94 240.497 340.936 213.644V213.643C340.936 207.784 336.187 203.035 330.328 203.035C324.469 203.035 319.719 207.784 319.719 213.643V213.644C319.716 236.819 313.723 258.513 303.197 277.383C292.672 296.247 277.6 312.259 259.483 323.912C239.057 337.045 214.817 344.653 188.704 344.657C163.327 344.653 139.721 337.463 119.66 324.999C114.684 321.905 108.143 323.432 105.049 328.408C101.956 333.384 103.483 339.925 108.459 343.019" fill="#EBA634"/>
<path d="M36.4747 213.643V213.644C36.4707 240.923 43.6733 266.6 56.272 288.756C68.8707 310.919 86.8534 329.589 108.46 343.019C113.436 346.112 119.977 344.585 123.071 339.608C126.163 334.632 124.636 328.091 119.66 324.999C101.061 313.441 85.556 297.34 74.7173 278.271C63.88 259.197 57.6947 237.185 57.692 213.644V213.643C57.692 207.784 52.9427 203.035 47.0827 203.035C41.224 203.035 36.4747 207.784 36.4747 213.643" fill="#EBA634"/>
<path d="M76.922 345.598C77.7026 346.404 78.1998 347.408 78.4137 348.61C78.6434 349.796 78.5615 351.008 78.1679 352.247C77.7902 353.47 77.1191 354.548 76.1548 355.482C75.2062 356.4 74.1067 357.036 72.8561 357.389C71.6055 357.742 70.3832 357.793 69.1891 357.54C68.0108 357.272 67.0314 356.734 66.2509 355.928L62.2565 351.802L57.7746 356.141C57.3477 356.554 56.8775 356.764 56.3639 356.771C55.8503 356.779 55.3945 356.577 54.9966 356.166C54.614 355.771 54.4346 355.316 54.4585 354.803C54.4982 354.275 54.7236 353.812 55.1346 353.414L68.8411 340.145C69.2521 339.747 69.7221 339.552 70.251 339.561C70.8111 339.57 71.29 339.78 71.688 340.191L76.922 345.598ZM68.9542 353.311C69.245 353.612 69.6546 353.782 70.1831 353.821C70.7268 353.877 71.2804 353.8 71.844 353.591C72.4387 353.383 72.9574 353.065 73.4 352.636C73.8427 352.208 74.1698 351.707 74.3814 351.135C74.6241 350.563 74.7186 350.012 74.6649 349.482C74.6424 348.953 74.4857 348.538 74.195 348.238L70.2005 344.112L64.9598 349.185L68.9542 353.311Z" fill="#302F2E"/>
<path d="M76.1955 373.586C75.8214 374.019 75.3467 374.248 74.7714 374.274C74.2105 374.284 73.722 374.109 73.3059 373.749C72.8564 373.361 72.6042 372.895 72.5492 372.353C72.5252 371.809 72.7003 371.321 73.0744 370.888L85.5499 356.456C85.924 356.023 86.3832 355.794 86.9274 355.77C87.4861 355.73 87.9984 355.911 88.4645 356.314C88.8807 356.674 89.1091 357.133 89.1497 357.691C89.2047 358.233 89.0451 358.721 88.671 359.154L76.1955 373.586Z" fill="#302F2E"/>
<path d="M114.122 379.079C113.892 379.428 113.534 379.693 113.046 379.872L93.713 386.425L102.506 392.216C103.002 392.543 103.309 392.956 103.428 393.456C103.559 393.937 103.467 394.417 103.152 394.894C102.85 395.354 102.43 395.631 101.894 395.725C101.388 395.814 100.896 395.7 100.418 395.386L88.3177 387.416C87.8399 387.101 87.5354 386.664 87.4041 386.103C87.2728 385.542 87.3463 385.05 87.6247 384.628C87.8547 384.279 88.2133 384.014 88.7005 383.835L108.006 377.264L100.041 372.018C99.5444 371.691 99.2369 371.277 99.1182 370.778C98.9995 370.278 99.0974 369.789 99.4121 369.311C99.7147 368.852 100.119 368.578 100.625 368.49C101.149 368.414 101.651 368.533 102.128 368.848L113.402 376.273C113.843 376.563 114.144 376.986 114.306 377.54C114.486 378.107 114.425 378.62 114.122 379.079Z" fill="#302F2E"/>
<path d="M139.315 389.839C139.202 390.242 138.942 390.603 138.533 390.923L122.129 403.073L132.271 405.899C132.843 406.058 133.262 406.357 133.528 406.797C133.8 407.215 133.859 407.7 133.705 408.251C133.558 408.781 133.243 409.173 132.761 409.427C132.306 409.666 131.803 409.708 131.252 409.555L117.295 405.666C116.744 405.513 116.32 405.189 116.023 404.695C115.727 404.202 115.647 403.711 115.782 403.224C115.895 402.821 116.155 402.459 116.564 402.139L132.937 389.981L123.748 387.421C123.176 387.262 122.757 386.962 122.491 386.523C122.225 386.083 122.169 385.588 122.323 385.037C122.47 384.507 122.771 384.122 123.226 383.884C123.702 383.651 124.216 383.611 124.767 383.765L137.771 387.388C138.279 387.529 138.696 387.839 139.019 388.318C139.364 388.802 139.462 389.309 139.315 389.839Z" fill="#302F2E"/>
<path d="M168.651 411.543C168.728 411.839 168.753 412.108 168.726 412.348C168.662 412.917 168.423 413.366 168.009 413.696C167.598 414.004 167.152 414.13 166.671 414.076C166.277 414.032 165.93 413.871 165.629 413.593C165.35 413.318 165.147 412.963 165.019 412.528L163.761 408.367L153.988 407.265L151.831 411.073C151.631 411.472 151.353 411.772 150.998 411.976C150.668 412.16 150.316 412.231 149.945 412.189C149.376 412.125 148.956 411.923 148.684 411.582C148.435 411.244 148.34 410.812 148.399 410.288C148.421 410.091 148.477 409.887 148.567 409.676L158.947 390.984C159.171 390.567 159.471 390.258 159.848 390.056C160.225 389.855 160.63 389.801 161.062 389.894C161.456 389.939 161.803 390.1 162.104 390.377C162.429 390.635 162.645 390.981 162.751 391.414L168.651 411.543ZM162.58 404.414L160.133 396.366L156.02 403.674L162.58 404.414Z" fill="#302F2E"/>
<path d="M231.595 407.82C230.071 408.251 228.662 408.444 227.368 408.398C226.075 408.352 224.78 408.02 223.486 407.403C222.77 407.057 222.326 406.576 222.152 405.962C222.015 405.475 222.075 405.001 222.333 404.539C222.585 404.056 222.965 403.743 223.474 403.599C223.876 403.486 224.272 403.511 224.661 403.675C225.706 404.135 226.675 404.409 227.569 404.499C228.464 404.59 229.461 404.479 230.563 404.168C231.748 403.833 232.69 403.281 233.387 402.512C234.105 401.737 234.354 400.958 234.133 400.175C233.863 399.222 233.23 398.6 232.234 398.311C231.231 397.999 229.77 397.967 227.85 398.212C223.021 398.845 220.092 397.341 219.063 393.699C218.686 392.365 218.709 391.113 219.132 389.941C219.55 388.749 220.29 387.728 221.353 386.878C222.41 386.008 223.68 385.363 225.162 384.944C226.496 384.567 227.802 384.415 229.081 384.488C230.38 384.555 231.514 384.806 232.483 385.241C233.235 385.554 233.701 386.029 233.88 386.664C234.018 387.151 233.96 387.636 233.708 388.119C233.45 388.58 233.078 388.88 232.591 389.018C232.273 389.107 231.96 389.093 231.652 388.974C230.976 388.685 230.089 388.501 228.992 388.423C227.911 388.317 226.978 388.375 226.195 388.596C224.861 388.973 223.895 389.521 223.298 390.238C222.716 390.929 222.538 391.677 222.766 392.481C223.023 393.392 223.588 393.975 224.461 394.231C225.355 394.482 226.648 394.528 228.341 394.369C230.252 394.172 231.819 394.175 233.043 394.378C234.281 394.553 235.299 394.997 236.094 395.71C236.884 396.401 237.48 397.456 237.881 398.875C238.258 400.209 238.209 401.492 237.734 402.723C237.274 403.928 236.498 404.982 235.404 405.886C234.305 406.768 233.035 407.413 231.595 407.82Z" fill="#302F2E"/>
<path d="M265.692 392.304C266.218 392.079 266.726 392.064 267.217 392.261C267.72 392.428 268.084 392.775 268.309 393.301C268.526 393.807 268.526 394.309 268.309 394.809C268.104 395.28 267.739 395.628 267.213 395.854L257.353 400.079C256.827 400.304 256.309 400.323 255.797 400.135C255.298 399.918 254.935 399.547 254.71 399.021L247.196 381.486C246.97 380.96 246.966 380.448 247.183 379.948C247.391 379.428 247.778 379.046 248.344 378.804C248.85 378.587 249.363 378.583 249.883 378.791C250.394 378.979 250.763 379.335 250.988 379.861L257.774 395.697L265.692 392.304Z" fill="#302F2E"/>
<path d="M280.664 383.285C280.96 383.775 281.031 384.297 280.878 384.852C280.713 385.389 280.395 385.799 279.924 386.083C279.416 386.39 278.895 386.486 278.363 386.37C277.838 386.225 277.428 385.907 277.132 385.417L267.274 369.085C266.978 368.595 266.903 368.088 267.049 367.563C267.183 367.019 267.514 366.588 268.042 366.27C268.513 365.985 269.02 365.91 269.564 366.045C270.096 366.16 270.51 366.463 270.806 366.953L280.664 383.285Z" fill="#302F2E"/>
<path d="M295.302 354.859C296.048 354.677 296.673 354.876 297.179 355.457C297.482 355.806 297.653 356.255 297.693 356.803C297.731 357.383 297.542 357.853 297.127 358.214C296.844 358.46 296.497 358.631 296.085 358.726C294.939 359.052 293.893 359.626 292.947 360.449C291.784 361.46 290.988 362.59 290.558 363.838C290.113 365.071 290.048 366.337 290.363 367.638C290.663 368.922 291.311 370.137 292.307 371.283C294.011 373.242 295.826 374.274 297.753 374.377C299.696 374.466 301.523 373.767 303.233 372.28C304.246 371.399 304.96 370.443 305.375 369.411C305.559 369.019 305.767 368.721 305.999 368.519C306.431 368.144 306.955 368.009 307.571 368.114C308.095 368.213 308.515 368.445 308.833 368.811C309.064 369.076 309.207 369.375 309.262 369.706C309.317 370.038 309.27 370.37 309.122 370.702C308.39 372.476 307.293 373.998 305.832 375.269C304.205 376.684 302.414 377.642 300.461 378.146C298.493 378.632 296.517 378.557 294.534 377.919C292.551 377.281 290.73 376.008 289.069 374.098C287.597 372.405 286.658 370.553 286.252 368.544C285.863 366.521 286.025 364.544 286.736 362.612C287.434 360.665 288.638 358.947 290.348 357.46C291.826 356.175 293.477 355.308 295.302 354.859Z" fill="#302F2E"/>
<path d="M382.085 285.176L373.645 285.053L368.76 291.937L366.271 283.872L358.211 281.349L365.112 276.489L365.019 268.051L371.776 273.108L379.772 270.413L377.049 278.401L382.085 285.176" fill="#50B237"/>
<path d="M364.213 316.732L355.772 316.608L350.888 323.493L348.396 315.429L340.339 312.908L347.24 308.047L347.145 299.604L353.904 304.665L361.901 301.965L359.177 309.957L364.213 316.732" fill="#50B237"/>
<path d="M16.6547 329.412L21.3733 322.411L18.276 314.56L26.392 316.88L32.908 311.509L33.2053 319.945L40.3267 324.481L32.396 327.375L30.2827 335.543L25.0813 328.896L16.6547 329.412Z" fill="#50B237"/>
<path d="M0 297.199L4.71732 290.197L1.62135 282.344L9.73737 284.664L16.2507 279.296L16.5493 287.732L23.6707 292.269L15.74 295.16L13.628 303.331L8.42533 296.68L0 297.199Z" fill="#50B237"/>
<path d="M330.075 349.228C330.518 348.865 331.009 348.717 331.549 348.786C332.093 348.824 332.525 349.038 332.846 349.429C333.195 349.854 333.329 350.328 333.246 350.852C333.181 351.361 332.927 351.798 332.485 352.161L323.941 359.179C323.499 359.542 323.006 359.705 322.463 359.667C321.922 359.599 321.47 359.343 321.107 358.901L308.998 344.16C308.635 343.718 308.479 343.234 308.531 342.707C308.586 342.15 308.834 341.69 309.276 341.327L317.82 334.308C318.262 333.945 318.746 333.789 319.272 333.841C319.802 333.862 320.248 334.093 320.611 334.535C320.961 334.96 321.102 335.427 321.037 335.937C320.957 336.429 320.688 336.864 320.229 337.241L313.317 342.919L316.879 347.254L322.643 342.52C323.085 342.156 323.569 342.001 324.096 342.052C324.625 342.073 325.071 342.304 325.435 342.746C325.784 343.171 325.925 343.639 325.86 344.148C325.78 344.641 325.511 345.075 325.052 345.452L319.288 350.187L323.164 354.905L330.075 349.228Z" fill="#302F2E"/>
<path d="M347.059 333.932C346.055 335.157 345.01 336.121 343.923 336.824C342.835 337.526 341.584 337.994 340.169 338.229C339.384 338.354 338.745 338.214 338.251 337.81C337.86 337.489 337.638 337.066 337.585 336.539C337.516 335.999 337.649 335.525 337.983 335.116C338.248 334.793 338.587 334.587 339.001 334.499C340.12 334.278 341.072 333.949 341.857 333.511C342.643 333.073 343.398 332.412 344.123 331.527C344.903 330.573 345.36 329.582 345.492 328.553C345.638 327.506 345.396 326.725 344.766 326.209C344 325.582 343.126 325.434 342.142 325.767C341.142 326.085 339.925 326.894 338.491 328.194C334.893 331.475 331.63 331.917 328.702 329.519C327.629 328.641 326.932 327.6 326.609 326.397C326.269 325.18 326.292 323.919 326.678 322.614C327.047 321.295 327.72 320.04 328.696 318.849C329.574 317.776 330.558 316.904 331.649 316.233C332.753 315.545 333.827 315.102 334.87 314.904C335.666 314.731 336.319 314.854 336.83 315.272C337.222 315.593 337.452 316.023 337.521 316.563C337.574 317.09 337.44 317.549 337.119 317.94C336.91 318.196 336.645 318.363 336.324 318.442C335.605 318.591 334.772 318.948 333.828 319.511C332.88 320.043 332.148 320.624 331.632 321.254C330.754 322.326 330.275 323.327 330.195 324.258C330.113 325.157 330.395 325.872 331.042 326.402C331.774 327.001 332.571 327.156 333.434 326.867C334.31 326.561 335.397 325.859 336.695 324.761C338.149 323.506 339.436 322.612 340.556 322.078C341.673 321.514 342.761 321.296 343.821 321.425C344.865 321.54 345.957 322.065 347.097 322.999C348.17 323.877 348.863 324.957 349.179 326.239C349.491 327.49 349.457 328.799 349.077 330.166C348.68 331.519 348.007 332.774 347.059 333.932Z" fill="#302F2E"/>
<path d="M275.047 280.421C271.891 284.433 259.2 282.655 255.427 286.092C251.648 289.529 252.225 302.327 247.935 305.093C243.643 307.86 232.221 302.059 227.533 304.085C222.847 306.111 219.312 318.753 214.279 319.624C209.247 320.497 200.404 311.659 195.313 312.051C190.224 312.443 182.817 322.897 177.729 322.443C172.644 321.992 167.193 310.399 162.251 309.115C157.311 307.836 146.912 315.317 142.248 313.239C137.584 311.165 136.191 298.429 131.933 295.611C127.676 292.791 115.412 296.492 111.673 293.012C107.937 289.532 110.757 277.036 107.641 272.992C104.529 268.944 91.7307 268.461 89.3227 263.955C86.9213 259.452 93.6427 248.548 92.016 243.708C90.384 238.871 78.4334 234.255 77.6214 229.217C76.8107 224.177 86.712 216.047 86.7413 210.937C86.7693 205.832 76.9627 197.592 77.832 192.56C78.7 187.528 90.704 183.056 92.3907 178.232C94.076 173.413 87.4773 162.432 89.9333 157.956C92.392 153.48 105.199 153.148 108.356 149.132C111.517 145.123 108.843 132.596 112.616 129.159C116.395 125.721 128.616 129.563 132.908 126.791C137.195 124.028 138.733 111.312 143.417 109.288C148.105 107.261 158.419 114.861 163.376 113.639C168.333 112.411 173.919 100.881 179.008 100.491C184.099 100.099 191.385 110.637 196.465 111.089C201.557 111.54 210.501 102.799 215.523 103.731C220.541 104.66 223.929 117.341 228.596 119.421C233.264 121.501 244.749 115.827 249.007 118.645C253.268 121.464 252.543 134.252 256.279 137.733C260.016 141.215 272.724 139.583 275.837 143.628C278.948 147.675 274.109 159.536 276.515 164.044C278.92 168.548 291.464 171.128 293.097 175.967C294.728 180.804 286.299 190.455 287.108 195.496C287.924 200.54 298.952 207.057 298.921 212.164C298.892 217.268 287.787 223.657 286.919 228.687C286.052 233.72 294.364 243.461 292.683 248.283C290.993 253.101 278.419 255.54 275.964 260.016C273.505 264.489 278.208 276.409 275.047 280.421" fill="#D5312B"/>
<path d="M275.047 280.421L269.265 275.873L271.237 277.424L270.053 275.152C270.053 275.155 269.707 275.321 269.265 275.873L271.237 277.424L270.053 275.152L269.904 275.215C269.521 275.372 268.456 275.639 267.109 275.836C266.096 275.991 264.916 276.129 263.659 276.28C261.764 276.512 259.715 276.749 257.559 277.248C256.477 277.503 255.36 277.824 254.176 278.327C252.999 278.833 251.724 279.521 250.473 280.655L250.477 280.651C249.129 281.887 248.296 283.191 247.664 284.4C246.58 286.527 246.041 288.499 245.559 290.401C245.208 291.824 244.921 293.199 244.645 294.461C244.24 296.348 243.824 298.009 243.469 298.929C243.384 299.159 243.305 299.337 243.248 299.457L243.163 299.62L243.159 299.625L245.336 301.064L243.948 298.912C243.376 299.285 243.171 299.611 243.159 299.625L245.336 301.064L243.948 298.912L245.493 301.307L244.879 298.496C244.771 298.52 244.419 298.609 243.949 298.911L245.493 301.307L244.879 298.496L245.031 299.189L244.924 298.487L244.879 298.496L245.031 299.189L244.924 298.487C244.924 298.488 244.821 298.501 244.624 298.5C244.195 298.504 243.372 298.428 242.369 298.256C240.855 298.005 238.945 297.559 236.899 297.139C235.871 296.928 234.803 296.725 233.687 296.567C232.568 296.409 231.404 296.292 230.136 296.289C229.328 296.291 228.475 296.339 227.555 296.487C226.639 296.637 225.648 296.888 224.613 297.335L224.616 297.332C222.901 298.083 221.681 299.075 220.689 300.032C218.975 301.727 217.84 303.443 216.777 305.107C215.992 306.353 215.284 307.573 214.621 308.681C213.641 310.339 212.717 311.76 212.128 312.447C211.984 312.617 211.868 312.741 211.795 312.812L211.735 312.868L211.719 312.881L212.787 314.209L212.028 312.695C211.815 312.803 211.724 312.879 211.719 312.881L212.787 314.209L212.028 312.695L213.633 315.899L213.024 312.376C212.585 312.452 212.24 312.588 212.028 312.695L213.633 315.899L213.024 312.376L213.543 315.383V312.329C213.417 312.329 213.24 312.339 213.023 312.376L213.543 315.383V312.329V313.793L213.785 312.344C213.777 312.343 213.699 312.329 213.543 312.329V313.793L213.785 312.344L213.755 312.337C213.557 312.308 212.621 311.961 211.475 311.343C209.719 310.424 207.471 308.987 205.008 307.636C203.764 306.96 202.455 306.299 200.968 305.739C199.479 305.193 197.795 304.697 195.651 304.681C195.357 304.681 195.056 304.692 194.743 304.716H194.749C192.965 304.86 191.529 305.361 190.305 305.911C188.175 306.896 186.561 308.091 185.035 309.269C183.901 310.157 182.847 311.049 181.864 311.869C180.4 313.097 179.061 314.164 178.164 314.729C177.723 315.015 177.401 315.165 177.333 315.189L177.343 315.213L177.336 315.189H177.333L177.343 315.213L177.336 315.189L178.056 317.517V315.1C177.627 315.103 177.389 315.173 177.336 315.189L178.056 317.517V315.1V318.753L178.38 315.115L178.056 315.1V318.753L178.38 315.115L178.157 317.611L179.411 315.38C179.408 315.383 179.081 315.183 178.379 315.115L178.157 317.611L179.411 315.38L179.276 315.289C178.935 315.055 178.129 314.308 177.228 313.288C176.543 312.525 175.781 311.613 174.968 310.643C173.739 309.183 172.419 307.597 170.823 306.065C170.017 305.3 169.137 304.54 168.071 303.823C167.004 303.115 165.731 302.424 164.1 301.995L164.095 301.993C162.969 301.703 161.925 301.611 160.973 301.611C159.78 301.612 158.717 301.753 157.727 301.945C155.997 302.287 154.461 302.785 152.997 303.301C150.817 304.079 148.793 304.915 147.137 305.483C146.316 305.768 145.593 305.985 145.061 306.108C144.796 306.171 144.579 306.209 144.431 306.229L144.263 306.248L144.213 306.251V308.829L145.243 306.52C144.605 306.241 144.221 306.252 144.213 306.251V308.829L145.243 306.52L145.237 306.517L144.219 308.809L146.129 307.104C146.127 307.105 145.881 306.809 145.237 306.517L144.219 308.809L146.129 307.104L146.032 306.976C145.785 306.643 145.265 305.676 144.744 304.419C144.344 303.475 143.92 302.365 143.465 301.183C142.776 299.404 142.043 297.476 141.031 295.509C140.517 294.524 139.932 293.519 139.156 292.495C138.376 291.479 137.397 290.412 135.995 289.477C134.983 288.809 133.985 288.373 133.051 288.059C131.645 287.593 130.364 287.385 129.145 287.257C127.928 287.133 126.771 287.101 125.651 287.101C123.073 287.107 120.637 287.269 118.725 287.264C117.476 287.271 116.464 287.185 116.024 287.092L115.813 287.044L115.8 287.039L114.98 289.459L116.684 287.627C116.165 287.152 115.8 287.041 115.8 287.039L114.98 289.459L116.684 287.627L116.688 287.631L114.981 289.461L117.339 288.472C117.335 288.473 117.2 288.115 116.688 287.631L114.981 289.461L117.339 288.472L117.288 288.319C117.161 287.921 116.985 286.837 116.9 285.48C116.828 284.456 116.788 283.269 116.741 282.004C116.668 280.096 116.6 278.036 116.28 275.845C116.115 274.747 115.887 273.605 115.484 272.384C115.076 271.169 114.495 269.843 113.469 268.503L113.473 268.508C112.353 267.064 111.121 266.125 109.969 265.395C107.94 264.14 106.019 263.44 104.163 262.801C102.775 262.335 101.429 261.936 100.193 261.557C98.3467 260.997 96.7267 260.445 95.8374 260.015C95.6161 259.911 95.4441 259.819 95.3294 259.751L95.1734 259.651L95.1681 259.648L93.5601 261.691L95.8107 260.488C95.4867 259.891 95.1814 259.66 95.1681 259.648L93.5601 261.691L95.8107 260.488L95.8134 260.492L93.0494 261.967L96.1321 261.343C96.0987 261.179 96.016 260.872 95.8134 260.492L93.0494 261.967L96.1321 261.343L94.7747 261.617L96.1547 261.493L96.1321 261.343L94.7747 261.617L96.1547 261.493L95.8401 261.521L96.156 261.501L96.1547 261.493L95.8401 261.521L96.156 261.501L96.1547 261.456C96.1454 261.251 96.2347 260.436 96.4961 259.38C96.8734 257.777 97.5721 255.643 98.2401 253.347C98.5734 252.192 98.8987 250.985 99.1601 249.704C99.4187 248.419 99.624 247.061 99.628 245.512C99.6254 244.276 99.496 242.891 98.988 241.364L98.9854 241.357C98.3934 239.627 97.5347 238.341 96.6813 237.277C95.1693 235.432 93.58 234.147 92.0307 232.941C90.8694 232.048 89.7254 231.235 88.68 230.473C87.1147 229.345 85.7614 228.297 85.0587 227.601C84.884 227.432 84.7507 227.288 84.6654 227.187L84.5494 227.043L84.5467 227.037L82.3547 228.453L84.8827 228.045C84.7707 227.372 84.5547 227.053 84.5467 227.037L82.3547 228.453L84.8827 228.045L84.884 228.048L81.4 228.609H84.9294C84.9294 228.455 84.9187 228.264 84.884 228.048L81.4 228.609H84.9294H82.5907L84.8907 229.067C84.9041 228.999 84.9294 228.845 84.9294 228.609H82.5907L84.8907 229.067L84.244 228.939L84.88 229.115L84.8907 229.067L84.244 228.939L84.88 229.115C84.8787 229.112 84.9561 228.875 85.1401 228.513C85.4574 227.875 86.0867 226.875 86.8761 225.751C88.0614 224.043 89.5854 222.072 90.9947 219.847C91.7 218.724 92.3854 217.528 92.9734 216.124C93.5467 214.721 94.0721 213.075 94.0961 210.979V210.977L94.0974 210.915C94.0907 209.173 93.7227 207.735 93.2867 206.495C92.504 204.333 91.476 202.655 90.452 201.065C88.912 198.719 87.3 196.599 86.2494 194.929C85.7254 194.108 85.3521 193.411 85.1934 193.027L85.1094 192.809L85.0894 192.748L84.2374 192.98L85.108 192.851L85.0894 192.748L84.2374 192.98L85.108 192.851L82.6467 193.217H85.1334C85.1334 193.049 85.12 192.928 85.108 192.851L82.6467 193.217H85.1334H81.6241L85.08 193.817C85.12 193.581 85.1334 193.377 85.1334 193.217H81.6241L85.08 193.817L85.0813 193.811L82.6121 193.384L84.7307 194.817C84.7294 194.815 84.956 194.505 85.0813 193.811L82.6121 193.384L84.7307 194.817L84.8321 194.692C85.0947 194.369 85.9054 193.629 86.9961 192.815C87.8134 192.196 88.784 191.512 89.82 190.781C91.376 189.676 93.064 188.492 94.7227 187.027C95.5533 186.287 96.384 185.472 97.1854 184.467C97.98 183.46 98.7721 182.249 99.3347 180.659L99.3334 180.661C99.888 179.061 100.021 177.615 100.025 176.329C100.016 174.317 99.6907 172.611 99.3227 170.984C98.7573 168.567 98.0347 166.328 97.5121 164.416C97.2494 163.467 97.0374 162.608 96.9067 161.924C96.7734 161.243 96.7321 160.733 96.7347 160.556L96.736 160.5V160.491L94.1533 160.273L96.3813 161.496C96.7107 160.887 96.7334 160.501 96.736 160.491L94.1533 160.273L96.3813 161.496V161.497L93.4947 159.913L95.9214 162.147C96.0427 162.016 96.2147 161.801 96.3813 161.497L93.4947 159.913L95.9214 162.147L94.7681 161.085L95.7267 162.333C95.7374 162.324 95.8067 162.271 95.9214 162.147L94.7681 161.085L95.7267 162.333L95.728 162.332C95.78 162.269 96.6507 161.803 97.9067 161.381C98.8494 161.052 100.007 160.707 101.26 160.34C103.147 159.784 105.229 159.204 107.375 158.345C108.449 157.909 109.552 157.403 110.692 156.697C111.825 155.988 113.033 155.075 114.139 153.679L114.133 153.687C115.26 152.245 115.868 150.821 116.292 149.524C117.011 147.248 117.217 145.215 117.38 143.259C117.492 141.799 117.548 140.396 117.612 139.104C117.701 137.177 117.837 135.471 118.036 134.503C118.084 134.263 118.131 134.073 118.168 133.945L118.227 133.769L118.229 133.763L117.628 133.511L118.205 133.812L118.229 133.763L117.628 133.511L118.205 133.812L115.628 132.465L117.569 134.596C117.971 134.229 118.149 133.917 118.205 133.812L115.628 132.465L117.569 134.596L117.565 134.6L115.564 132.399L116.756 135.145C116.885 135.089 117.195 134.936 117.565 134.6L115.564 132.399L116.756 135.145L116.375 134.268L116.675 135.177L116.756 135.145L116.375 134.268L116.675 135.177L116.715 135.167C116.925 135.097 117.909 134.973 119.2 134.984C120.236 134.983 121.477 135.037 122.815 135.1C124.153 135.161 125.588 135.231 127.087 135.232C128.507 135.229 129.98 135.176 131.584 134.915C132.387 134.783 133.225 134.595 134.113 134.297C135 133.997 135.943 133.587 136.897 132.972L136.892 132.975C138.425 131.977 139.463 130.828 140.285 129.74C141.704 127.82 142.559 125.965 143.347 124.168C143.927 122.823 144.435 121.515 144.915 120.315C145.624 118.521 146.308 116.952 146.809 116.101C146.932 115.889 147.039 115.725 147.115 115.617L147.227 115.471L147.231 115.465L145.32 113.689L146.336 116.04C146.961 115.765 147.217 115.477 147.231 115.465L145.32 113.689L146.336 116.04L145.307 113.659V116.297C145.337 116.296 145.721 116.301 146.336 116.04L145.307 113.659V116.297V116.199L145.304 116.297H145.307V116.199L145.304 116.297C145.345 116.283 146.16 116.403 147.244 116.764C148.899 117.289 151.149 118.249 153.58 119.169C154.805 119.629 156.088 120.08 157.477 120.451C158.872 120.813 160.373 121.121 162.172 121.129C163.08 121.128 164.072 121.043 165.137 120.781L165.145 120.779C166.917 120.332 168.271 119.581 169.401 118.819C171.364 117.464 172.776 115.987 174.107 114.543C175.092 113.459 175.997 112.385 176.841 111.405C178.095 109.94 179.251 108.677 180.001 108.036C180.185 107.876 180.34 107.755 180.448 107.677L180.6 107.576L180.605 107.572L179.375 105.269L179.571 107.825C180.252 107.768 180.588 107.58 180.605 107.572L179.375 105.269L179.571 107.825L179.288 104.133V107.836L179.573 107.825L179.288 104.133V107.836V104.935L178.652 107.772C178.775 107.799 178.991 107.836 179.288 107.836V104.935L178.652 107.772L178.976 106.325L178.532 107.74L178.652 107.772L178.976 106.325L178.532 107.74L178.701 107.2L178.513 107.733L178.532 107.74L178.701 107.2L178.513 107.733L178.541 107.745C178.732 107.809 179.62 108.332 180.667 109.165C181.463 109.787 182.379 110.565 183.36 111.407C184.844 112.671 186.447 114.069 188.315 115.369C189.256 116.019 190.271 116.651 191.469 117.208C192.667 117.756 194.072 118.255 195.815 118.416L195.817 118.417C196.175 118.448 196.521 118.463 196.857 118.463C198.405 118.457 199.717 118.185 200.888 117.847C202.929 117.239 204.612 116.405 206.208 115.563C208.573 114.296 210.736 112.955 212.459 112.064C213.309 111.619 214.04 111.295 214.497 111.136C214.724 111.056 214.88 111.017 214.929 111.008L214.947 111.004L214.731 109.663V111.016C214.875 111.016 214.944 111.004 214.947 111.004L214.731 109.663V111.016V108.001L214.183 110.963C214.417 111.007 214.604 111.016 214.731 111.016V108.001L214.183 110.963L214.849 107.371L213.268 110.671C213.48 110.773 213.796 110.892 214.183 110.963L214.849 107.371L213.268 110.671L214.217 108.689L212.908 110.461C212.955 110.495 213.068 110.575 213.268 110.671L214.217 108.689L212.908 110.461L213.169 110.107L212.884 110.443L212.908 110.461L213.169 110.107L212.884 110.443C212.903 110.456 213.092 110.636 213.348 110.959C213.805 111.523 214.452 112.504 215.147 113.673C216.207 115.439 217.365 117.603 218.803 119.768C219.532 120.855 220.333 121.953 221.369 123.051C222.408 124.133 223.695 125.276 225.6 126.14L225.603 126.141C226.679 126.619 227.708 126.883 228.657 127.04C229.609 127.196 230.492 127.245 231.329 127.247C232.965 127.243 234.443 127.057 235.859 126.835C237.973 126.492 239.956 126.044 241.684 125.715C243.395 125.376 244.871 125.187 245.56 125.199C245.708 125.199 245.816 125.205 245.872 125.211L245.915 125.215L246.379 122.613L244.945 124.779C245.505 125.145 245.884 125.208 245.915 125.215L246.379 122.613L244.945 124.779L244.948 124.781L246.763 122.037L244.339 124.269C244.459 124.401 244.66 124.589 244.948 124.781L246.763 122.037L244.339 124.269L245.492 123.208L244.169 124.06C244.177 124.072 244.225 124.145 244.339 124.269L245.492 123.208L244.169 124.06L244.171 124.061C244.228 124.119 244.621 125.024 244.939 126.309C245.189 127.276 245.437 128.456 245.699 129.735C246.096 131.66 246.503 133.783 247.18 135.991C247.524 137.097 247.937 138.237 248.545 139.432C249.157 140.619 249.967 141.897 251.263 143.115L251.265 143.117C252.608 144.357 253.977 145.08 255.235 145.611C257.444 146.515 259.453 146.888 261.389 147.212C262.836 147.444 264.229 147.616 265.512 147.787C267.425 148.033 269.116 148.311 270.064 148.589C270.299 148.656 270.484 148.719 270.608 148.767L270.777 148.839L270.784 148.841L271.087 148.261L270.737 148.813L270.784 148.841L271.087 148.261L270.737 148.813L272.293 146.356L270.007 148.115C270.34 148.545 270.637 148.749 270.737 148.813L272.293 146.356L270.007 148.115L270.005 148.112L272.597 146.119L269.585 147.408C269.655 147.572 269.785 147.825 270.005 148.112L272.597 146.119L269.585 147.408L271.108 146.756L269.504 147.183C269.511 147.208 269.532 147.284 269.585 147.408L271.108 146.756L269.504 147.183L269.692 147.132L269.501 147.175L269.504 147.183L269.692 147.132L269.501 147.175C269.512 147.201 269.565 147.559 269.563 148.113C269.571 149.264 269.353 151.171 269.072 153.277C268.803 155.408 268.469 157.733 268.46 160.287C268.461 161.333 268.519 162.429 268.725 163.624C268.936 164.815 269.292 166.125 270.024 167.508L270.025 167.511C270.895 169.119 271.953 170.247 272.971 171.155C274.767 172.727 276.545 173.732 278.271 174.667C279.563 175.356 280.825 175.969 281.983 176.548C283.711 177.403 285.219 178.213 286.025 178.784C286.225 178.923 286.381 179.043 286.483 179.128L286.62 179.252L286.624 179.256L288.547 177.504L286.128 178.321C286.349 178.964 286.615 179.243 286.624 179.256L288.547 177.504L286.128 178.321L286.127 178.315L288.965 177.359H285.951C285.951 177.503 285.969 177.847 286.127 178.315L288.965 177.359H285.951H287.111L285.953 177.272L285.951 177.359H287.111L285.953 177.272L286.197 177.291L285.955 177.264L285.953 177.272L286.197 177.291L285.955 177.264C285.956 177.272 285.921 177.496 285.812 177.849C285.625 178.473 285.219 179.475 284.677 180.619C283.867 182.353 282.776 184.401 281.78 186.637C281.284 187.764 280.807 188.944 280.415 190.253C280.029 191.567 279.704 193.015 279.696 194.772C279.696 195.369 279.739 196.004 279.845 196.668L279.847 196.671C280.145 198.471 280.78 199.88 281.445 201.068C282.632 203.136 283.987 204.663 285.313 206.107C286.311 207.177 287.304 208.168 288.211 209.089C289.567 210.459 290.731 211.715 291.312 212.519C291.457 212.717 291.565 212.881 291.635 212.996L291.728 213.163L291.732 213.171L294.089 212.143H291.565C291.569 212.817 291.728 213.157 291.732 213.171L294.089 212.143H291.565H297.16L291.565 212.127V212.143H297.16L291.565 212.127C291.565 212.132 291.564 212.203 291.568 212.335L298.921 212.164L291.565 212.12L294.071 212.135L291.745 211.069C291.747 211.072 291.575 211.415 291.565 212.12L294.071 212.135L291.745 211.069L291.665 211.211C291.459 211.572 290.781 212.436 289.84 213.419C289.135 214.164 288.289 214.997 287.389 215.889C286.036 217.235 284.565 218.68 283.171 220.399C282.473 221.264 281.789 222.204 281.163 223.327C280.545 224.449 279.963 225.775 279.669 227.437C279.547 228.152 279.5 228.832 279.499 229.473C279.503 230.851 279.708 232.041 279.972 233.127C280.444 235.02 281.112 236.636 281.791 238.172C282.815 240.456 283.904 242.557 284.635 244.249C285 245.087 285.272 245.812 285.413 246.304C285.485 246.548 285.527 246.732 285.543 246.829L285.553 246.904L286.365 246.828H285.551L285.553 246.904L286.365 246.828H285.551H288.508L285.735 245.863C285.568 246.345 285.552 246.693 285.551 246.828H288.508L285.735 245.863L285.74 245.849L288.845 246.937L286.087 245.133C285.988 245.283 285.855 245.523 285.74 245.849L288.845 246.937L286.087 245.133L287.395 245.989L286.248 244.919C286.239 244.929 286.179 244.993 286.087 245.133L287.395 245.989L286.248 244.919L286.245 244.92C286.223 244.947 286.021 245.128 285.673 245.364C285.064 245.785 284.027 246.363 282.799 246.973C280.943 247.907 278.684 248.909 276.403 250.191C275.259 250.84 274.096 251.561 272.92 252.512C271.759 253.469 270.524 254.663 269.513 256.479L269.517 256.473C268.731 257.915 268.359 259.281 268.139 260.516C267.924 261.757 267.867 262.895 267.864 263.981C267.872 266.409 268.161 268.641 268.396 270.687C268.641 272.713 268.835 274.549 268.827 275.716C268.831 276.337 268.771 276.749 268.755 276.796V276.797L271.305 277.473L269.268 275.869C268.859 276.396 268.765 276.768 268.755 276.797L271.305 277.473L269.268 275.869L269.265 275.873L275.047 280.421L280.825 284.973C282.152 283.277 282.773 281.516 283.117 279.984C283.456 278.437 283.536 277.041 283.539 275.716C283.532 273.267 283.244 271.011 283.007 268.961C282.761 266.932 282.569 265.104 282.576 263.981C282.575 263.488 282.612 263.144 282.631 263.049L282.636 263.025V263.024L280.52 262.521L282.409 263.56C282.591 263.228 282.631 263.041 282.636 263.024L280.52 262.521L282.409 263.56L282.412 263.555L280.189 262.335L282.119 263.991C282.171 263.931 282.281 263.793 282.412 263.555L280.189 262.335L282.119 263.991L281.575 263.524L282.083 264.031L282.119 263.991L281.575 263.524L282.083 264.031C282.084 264.027 282.289 263.84 282.661 263.595C283.311 263.155 284.436 262.545 285.761 261.896C286.759 261.404 287.871 260.879 289.031 260.305C290.773 259.436 292.609 258.496 294.46 257.169C295.384 256.499 296.324 255.724 297.236 254.701C298.139 253.684 299.037 252.383 299.624 250.715L299.629 250.701C300.107 249.329 300.263 248.005 300.264 246.828C300.26 245.456 300.06 244.257 299.799 243.16C299.331 241.247 298.663 239.604 297.98 238.049C296.952 235.739 295.855 233.624 295.12 231.936C294.752 231.101 294.479 230.381 294.339 229.905C294.268 229.668 294.229 229.495 294.215 229.412L294.208 229.368L294.207 229.36L293.145 229.473H294.212L294.207 229.36L293.145 229.473H294.212H291.481L294.168 229.936C294.204 229.724 294.211 229.568 294.212 229.473H291.481L294.168 229.936L291.663 229.505L294.032 230.447C294.061 230.372 294.121 230.207 294.168 229.937L291.663 229.505L294.032 230.447L293.359 230.179L294.011 230.497L294.032 230.447L293.359 230.179L294.011 230.497C294.009 230.493 294.144 230.251 294.415 229.899C294.887 229.272 295.752 228.329 296.796 227.285C298.367 225.693 300.311 223.893 302.139 221.733C303.052 220.64 303.956 219.447 304.751 217.948C305.145 217.197 305.511 216.364 305.793 215.411C306.075 214.46 306.271 213.381 306.277 212.207L306.276 211.992L299.369 212.153H306.277L306.276 211.992L299.369 212.153H306.277H300.689L306.277 212.169V212.153H300.689L306.277 212.169V212.143C306.272 210.169 305.761 208.512 305.163 207.167C304.631 205.981 304.011 204.991 303.373 204.092C302.252 202.527 301.055 201.22 299.891 199.999C298.151 198.187 296.46 196.555 295.373 195.299C294.832 194.68 294.452 194.163 294.301 193.909L294.227 193.78L294.22 193.765L293.819 193.959L294.231 193.789L294.22 193.765L293.819 193.959L294.231 193.789L292.007 194.703L294.369 194.32C294.32 194.017 294.253 193.847 294.231 193.789L292.007 194.703L294.369 194.32V194.323L291.588 194.772H294.409C294.408 194.675 294.403 194.524 294.369 194.323L291.588 194.772H294.409H292.904L294.405 194.888L294.409 194.772H292.904L294.405 194.888L293.815 194.843L294.403 194.908L294.405 194.888L293.815 194.843L294.403 194.908L294.407 194.883C294.424 194.701 294.689 193.804 295.195 192.681C295.941 190.967 297.14 188.732 298.265 186.289C298.827 185.057 299.375 183.76 299.828 182.323C300.272 180.883 300.653 179.296 300.663 177.359C300.663 176.22 300.515 174.944 300.068 173.619L300.067 173.613C299.428 171.739 298.408 170.327 297.403 169.243C296.513 168.289 295.605 167.551 294.708 166.905C293.139 165.785 291.579 164.936 290.079 164.157C287.841 163.007 285.709 162.012 284.271 161.175C283.556 160.765 283.028 160.399 282.803 160.208L282.691 160.111L282.679 160.099L282.357 160.416L282.696 160.119L282.679 160.099L282.357 160.416L282.696 160.119L280.885 161.709L283.003 160.577C282.856 160.305 282.737 160.165 282.696 160.119L280.885 161.709L283.003 160.577L283.004 160.58L280.647 161.837L283.196 161.025C283.168 160.939 283.113 160.785 283.004 160.58L280.647 161.837L283.196 161.025L282.352 161.295L283.221 161.116L283.196 161.025L282.352 161.295L283.221 161.116C283.216 161.103 283.169 160.785 283.172 160.287C283.163 159.183 283.38 157.284 283.661 155.173C283.932 153.039 284.265 150.688 284.275 148.113C284.271 146.831 284.192 145.475 283.861 143.975C283.527 142.488 282.924 140.787 281.668 139.145L281.667 139.143C280.455 137.575 279.029 136.571 277.727 135.871C275.424 134.665 273.337 134.196 271.343 133.803C269.849 133.521 268.409 133.329 267.063 133.151C265.052 132.891 263.227 132.645 262.041 132.367C261.452 132.233 261.033 132.092 260.887 132.028L260.829 132.001L260.337 132.98L260.945 132.073L260.829 132.001L260.337 132.98L260.945 132.073L259.393 134.389L261.292 132.351C261.144 132.213 261.024 132.125 260.945 132.073L259.393 134.389L261.292 132.351L261.293 132.353L259.567 134.205L261.644 132.744C261.599 132.68 261.493 132.539 261.293 132.353L259.567 134.205L261.644 132.744L261.061 133.155L261.675 132.789L261.644 132.744L261.061 133.155L261.675 132.789C261.669 132.787 261.539 132.54 261.392 132.12C261.127 131.383 260.811 130.14 260.507 128.696C260.275 127.609 260.039 126.401 259.768 125.136C259.353 123.233 258.892 121.221 258.06 119.101C257.636 118.04 257.113 116.939 256.347 115.804C255.58 114.677 254.537 113.488 253.064 112.511L253.068 112.512C251.703 111.611 250.308 111.119 249.053 110.841C247.791 110.565 246.639 110.488 245.56 110.487C243.915 110.489 242.42 110.673 240.991 110.897C238.856 111.239 236.86 111.689 235.136 112.02C233.429 112.36 231.967 112.547 231.329 112.535L231.095 112.528L231.039 112.523L230.752 114.58L231.589 112.701C231.225 112.543 231.04 112.524 231.039 112.523L230.752 114.58L231.589 112.701L231.592 112.703L230.504 115.144L232.089 112.984C232.017 112.931 231.86 112.823 231.592 112.703L230.504 115.144L232.089 112.984L231.588 113.668L232.141 113.024L232.089 112.984L231.588 113.668L232.141 113.024L232.009 112.889C231.676 112.544 230.961 111.545 230.196 110.263C229.613 109.299 228.976 108.173 228.283 106.987C227.231 105.201 226.101 103.291 224.535 101.399C223.741 100.453 222.828 99.4959 221.609 98.5986C220.401 97.7119 218.821 96.8613 216.863 96.4973C216.121 96.36 215.405 96.3039 214.731 96.3039C213.191 96.3093 211.872 96.5759 210.692 96.9119C208.633 97.5159 206.931 98.3506 205.32 99.1959C202.933 100.468 200.761 101.817 199.04 102.711C198.191 103.157 197.465 103.484 197.019 103.64C196.797 103.72 196.648 103.757 196.609 103.764L196.601 103.767L196.857 105.328V103.751C196.697 103.751 196.615 103.764 196.601 103.767L196.857 105.328V103.751V106.667L197.115 103.761L196.857 103.751V106.667L197.115 103.761L197.117 103.763L196.891 106.313L197.633 103.855C197.555 103.832 197.385 103.787 197.117 103.763L196.891 106.313L197.633 103.855L197.404 104.611L197.689 103.873L197.633 103.855L197.404 104.611L197.689 103.873C197.688 103.876 197.452 103.772 197.093 103.543C196.457 103.145 195.477 102.389 194.38 101.467C192.713 100.076 190.803 98.3306 188.577 96.7066C187.452 95.8946 186.239 95.1 184.769 94.416C184.033 94.076 183.228 93.764 182.321 93.5253C181.415 93.288 180.4 93.1239 179.288 93.1239C179.011 93.1239 178.728 93.1346 178.443 93.156H178.444C176.468 93.312 174.848 93.9559 173.549 94.6626C172.407 95.2906 171.467 95.9893 170.621 96.7013C169.149 97.9479 167.943 99.2506 166.819 100.513C165.153 102.401 163.665 104.224 162.5 105.415C161.928 106.007 161.441 106.429 161.201 106.601L161.079 106.685L161.064 106.695L161.292 107.081L161.088 106.683L161.064 106.695L161.292 107.081L161.088 106.683L162.184 108.828L161.608 106.499C161.308 106.573 161.144 106.655 161.088 106.683L162.184 108.828L161.608 106.499L161.615 106.497L162.172 108.753V106.417C162.12 106.417 161.935 106.419 161.615 106.497L162.172 108.753V106.417V106.912L162.187 106.417H162.172V106.912L162.187 106.417L162.057 106.403C161.715 106.364 160.808 106.139 159.696 105.741C158.005 105.152 155.852 104.227 153.513 103.368C152.336 102.939 151.104 102.524 149.769 102.189C148.432 101.86 146.992 101.592 145.307 101.585C143.883 101.588 142.227 101.792 140.499 102.535C138.683 103.325 137.36 104.46 136.361 105.551C135.485 106.516 134.824 107.481 134.255 108.428C133.268 110.085 132.551 111.709 131.899 113.268C130.937 115.593 130.121 117.8 129.407 119.301C129.057 120.047 128.736 120.603 128.565 120.841L128.479 120.96L128.468 120.973L129.26 121.652L128.561 120.88L128.468 120.973L129.26 121.652L128.561 120.88L130.429 122.947L128.923 120.608C128.749 120.72 128.633 120.816 128.561 120.88L130.429 122.947L128.923 120.608L128.917 120.611L130.155 122.528L129.424 120.352C129.383 120.367 129.204 120.427 128.917 120.611L130.155 122.528L129.424 120.352L129.524 120.651L129.435 120.349L129.424 120.352L129.524 120.651L129.435 120.349C129.428 120.353 129.175 120.416 128.757 120.455C128.34 120.496 127.761 120.52 127.087 120.52C126.068 120.52 124.832 120.467 123.495 120.404C122.153 120.343 120.711 120.272 119.2 120.272C117.547 120.277 115.823 120.341 113.917 120.72C112.965 120.913 111.959 121.191 110.897 121.651C109.84 122.109 108.715 122.763 107.665 123.717L107.661 123.72C106.2 125.059 105.319 126.561 104.728 127.916C103.717 130.311 103.423 132.428 103.195 134.449C103.039 135.96 102.965 137.411 102.9 138.767C102.807 140.792 102.712 142.629 102.532 143.835C102.448 144.432 102.341 144.86 102.289 145.011L102.269 145.071L103.289 145.481L102.331 144.948L102.269 145.071L103.289 145.481L102.331 144.948L104.769 146.305L102.58 144.579C102.455 144.737 102.377 144.864 102.331 144.948L104.769 146.305L102.58 144.579L102.575 144.585L104.569 146.155L102.936 144.203C102.875 144.253 102.743 144.371 102.575 144.585L104.569 146.155L102.936 144.203L103.4 144.757L102.979 144.168L102.936 144.203L103.4 144.757L102.979 144.168C102.977 144.172 102.744 144.323 102.339 144.503C101.625 144.829 100.416 145.247 99.0014 145.668C97.9374 145.989 96.7534 146.324 95.516 146.699C93.6534 147.269 91.6867 147.893 89.644 148.897C88.6214 149.407 87.5667 150.017 86.4987 150.875C85.4401 151.731 84.3387 152.867 83.4854 154.416V154.417C82.8774 155.525 82.5147 156.64 82.3027 157.671C82.092 158.704 82.024 159.661 82.0227 160.556C82.032 162.573 82.3534 164.305 82.7227 165.949C83.288 168.395 84.0147 170.649 84.5401 172.56C84.8027 173.508 85.0161 174.36 85.1454 175.032C85.2787 175.701 85.3174 176.191 85.3134 176.329V176.367L87.4614 176.507L85.4467 175.801C85.3227 176.163 85.316 176.352 85.3134 176.367L87.4614 176.507L85.4467 175.801V175.804L87.8347 176.639L85.664 175.327C85.6227 175.395 85.536 175.547 85.4467 175.804L87.8347 176.639L85.664 175.327L86.2747 175.696L85.692 175.281L85.664 175.327L86.2747 175.696L85.692 175.281C85.692 175.285 85.5201 175.504 85.1934 175.807C84.6254 176.348 83.616 177.135 82.4147 177.993C81.5133 178.643 80.5013 179.344 79.4533 180.1C77.8773 181.244 76.22 182.473 74.6134 184.087C73.812 184.9 73.0133 185.82 72.2813 186.979C71.5573 188.133 70.8867 189.565 70.5827 191.308L70.584 191.301C70.4693 191.964 70.4214 192.608 70.4214 193.217C70.4267 194.941 70.7827 196.389 71.2134 197.644C71.988 199.832 73.02 201.547 74.0494 203.159C75.5987 205.54 77.2254 207.676 78.2854 209.343C78.8147 210.163 79.1907 210.856 79.3454 211.225L79.4267 211.428L79.4414 211.473L81.4387 210.915H79.384C79.3867 211.296 79.4427 211.469 79.4414 211.473L81.4387 210.915H79.384H82.6494L79.3854 210.897L79.384 210.915H82.6494L79.3854 210.897V210.896L81.9547 210.911L79.4334 210.383C79.416 210.464 79.3867 210.633 79.3854 210.896L81.9547 210.911L79.4334 210.383L80.272 210.559L79.448 210.321L79.4334 210.383L80.272 210.559L79.448 210.321L79.3907 210.471C79.2401 210.863 78.6973 211.829 77.92 212.957C76.7547 214.683 75.1147 216.784 73.584 219.155C72.8187 220.352 72.0694 221.628 71.4294 223.124C71.1107 223.875 70.8201 224.684 70.5961 225.589C70.3747 226.492 70.2187 227.497 70.2173 228.609C70.2173 229.179 70.26 229.775 70.3587 230.385V230.388C70.6787 232.344 71.4547 233.904 72.2667 235.14C72.9867 236.227 73.7614 237.104 74.5387 237.888C75.9027 239.252 77.3014 240.345 78.652 241.361C80.6707 242.865 82.6107 244.199 83.892 245.261C84.5294 245.783 84.9907 246.232 85.1813 246.456L85.2761 246.572L85.2854 246.585L85.6547 246.325L85.2707 246.563L85.2854 246.585L85.6547 246.325L85.2707 246.563L87.3214 245.291L85.0454 246.059C85.1441 246.352 85.2387 246.509 85.2707 246.563L87.3214 245.291L85.0454 246.059L85.0427 246.052L87.5494 245.209L84.9254 245.573C84.9374 245.663 84.9667 245.824 85.0427 246.052L87.5494 245.209L84.9254 245.573L86.008 245.423L84.916 245.493L84.9254 245.573L86.008 245.423L84.916 245.493L84.992 245.488L84.916 245.491V245.493L84.992 245.488L84.916 245.491V245.512C84.9267 245.664 84.8414 246.46 84.58 247.504C84.2014 249.092 83.4987 251.232 82.828 253.549C82.4934 254.713 82.1667 255.933 81.9067 257.229C81.6494 258.529 81.4467 259.901 81.4427 261.456C81.4427 262.327 81.5094 263.259 81.7121 264.261C81.9147 265.261 82.2587 266.341 82.8321 267.416L82.8347 267.42C83.7721 269.164 85.0107 270.389 86.18 271.295C87.2147 272.089 88.232 272.669 89.2227 273.159C90.956 274.007 92.6347 274.588 94.2427 275.109C96.6401 275.877 98.9067 276.508 100.463 277.097C101.235 277.383 101.816 277.657 102.069 277.808L102.195 277.887L102.209 277.896L102.477 277.524L102.188 277.879L102.209 277.896L102.477 277.524L102.188 277.879L103.716 276.009L101.809 277.475C101.999 277.72 102.139 277.839 102.188 277.879L103.716 276.009L101.809 277.475L101.815 277.481L103.828 275.929L101.532 277.036C101.567 277.108 101.648 277.264 101.815 277.481L103.828 275.929L101.532 277.036L102.187 276.72L101.509 276.985L101.532 277.036L102.187 276.72L101.509 276.985C101.512 276.987 101.6 277.251 101.676 277.688C101.817 278.459 101.924 279.733 101.987 281.208C102.036 282.317 102.071 283.548 102.129 284.84C102.225 286.784 102.349 288.844 102.82 291.071C103.063 292.187 103.396 293.359 103.965 294.605C104.535 295.841 105.367 297.187 106.659 298.395L106.663 298.399C107.761 299.42 108.948 300.105 110.053 300.581C111.723 301.289 113.243 301.581 114.665 301.761C116.089 301.935 117.432 301.975 118.725 301.976C121.323 301.971 123.765 301.808 125.651 301.813C126.727 301.809 127.608 301.869 128.067 301.947L128.321 301.995L128.387 302.012L128.699 300.999L128.263 301.963L128.387 302.012L128.699 300.999L128.263 301.963L129.407 299.428L127.872 301.744C128.043 301.856 128.176 301.924 128.263 301.963L129.407 299.428L127.872 301.744L129.271 299.632L127.463 301.416C127.519 301.472 127.645 301.593 127.872 301.744L129.271 299.632L127.463 301.416L127.969 300.915L127.425 301.376L127.463 301.416L127.969 300.915L127.425 301.376C127.431 301.377 127.6 301.6 127.813 301.989C128.199 302.675 128.713 303.847 129.252 305.223C129.66 306.256 130.091 307.409 130.567 308.612C131.289 310.421 132.076 312.328 133.245 314.281C133.837 315.259 134.533 316.259 135.477 317.252C136.419 318.236 137.644 319.239 139.259 319.96L139.255 319.959C141.041 320.749 142.749 320.96 144.213 320.963C146.593 320.944 148.511 320.452 150.309 319.921C152.98 319.103 155.401 318.076 157.425 317.344C158.428 316.976 159.317 316.684 159.975 316.516C160.301 316.431 160.568 316.377 160.745 316.349L160.94 316.325L160.979 316.323H160.981L160.973 315.965V316.323H160.981L160.973 315.965V316.323V314.052L160.408 316.236C160.745 316.321 160.935 316.321 160.973 316.323V314.052L160.408 316.236L160.401 316.233L161.039 313.783L159.907 316.056C159.979 316.092 160.137 316.165 160.401 316.233L161.039 313.783L159.907 316.056L160.225 315.417L159.859 316.031L159.907 316.056L160.225 315.417L159.859 316.031C159.864 316.031 160.096 316.185 160.425 316.485C161.011 317.008 161.88 317.949 162.835 319.076C163.556 319.921 164.337 320.872 165.177 321.855C166.448 323.331 167.811 324.88 169.551 326.349C170.428 327.08 171.411 327.801 172.625 328.435C173.835 329.06 175.317 329.611 177.08 329.769C177.408 329.799 177.735 329.813 178.056 329.813C179.912 329.807 181.463 329.375 182.765 328.863C183.909 328.407 184.891 327.869 185.797 327.309C187.375 326.327 188.733 325.26 190.008 324.225C191.899 322.676 193.615 321.18 194.909 320.244C195.545 319.777 196.069 319.46 196.316 319.341L196.437 319.285L196.449 319.28L196.061 318.251L196.317 319.319L196.449 319.28L196.061 318.251L196.317 319.319L195.664 316.604L195.879 319.385C196.079 319.369 196.225 319.34 196.317 319.319L195.664 316.604L195.879 319.385L195.884 319.384L195.651 316.379V319.393L195.884 319.384L195.651 316.379V319.393V317.701L195.365 319.375C195.384 319.377 195.476 319.393 195.651 319.393V317.701L195.365 319.375L195.376 319.305L195.363 319.375H195.365L195.376 319.305L195.363 319.375C195.387 319.377 195.636 319.441 196.011 319.595C196.672 319.86 197.699 320.387 198.861 321.055C200.625 322.057 202.684 323.359 204.969 324.544C206.121 325.135 207.337 325.705 208.715 326.176C210.092 326.637 211.647 327.032 213.543 327.041C214.175 327.041 214.843 326.992 215.535 326.872C216.549 326.697 217.484 326.381 218.304 326C219.845 325.279 220.995 324.364 221.945 323.461C223.593 321.868 224.719 320.24 225.753 318.657C226.519 317.471 227.205 316.304 227.847 315.225C228.8 313.611 229.677 312.177 230.327 311.319C230.645 310.891 230.903 310.616 230.984 310.543L231.004 310.524H231.005L229.56 308.776L230.451 310.839C230.833 310.671 230.991 310.533 231.005 310.524L229.56 308.776L230.451 310.839L230.455 310.837L229.541 308.727L229.912 311.009C229.957 311.001 230.143 310.971 230.455 310.837L229.541 308.727L229.912 311.009L229.875 310.777L229.901 311.011L229.912 311.009L229.875 310.777L229.901 311.011C229.915 311.009 229.997 311.001 230.136 311.003C230.528 310.997 231.333 311.072 232.325 311.244C233.825 311.495 235.739 311.943 237.8 312.365C238.836 312.576 239.915 312.779 241.043 312.937C242.172 313.095 243.349 313.211 244.624 313.212C245.673 313.211 246.796 313.135 248.023 312.868C249.244 312.6 250.595 312.129 251.92 311.276C253.584 310.197 254.704 308.86 255.509 307.62C256.216 306.524 256.709 305.463 257.115 304.435C257.816 302.637 258.256 300.917 258.644 299.272C259.209 296.82 259.652 294.508 260.109 292.908C260.331 292.116 260.557 291.513 260.687 291.249L260.755 291.116L260.763 291.101L260.373 290.867L260.748 291.124L260.763 291.101L260.373 290.867L260.748 291.124L258.761 289.757L260.377 291.533C260.605 291.325 260.712 291.176 260.748 291.124L258.761 289.757L260.377 291.533L260.38 291.529L258.668 289.651L259.96 291.849C260.029 291.808 260.177 291.715 260.38 291.529L258.668 289.651L259.96 291.849L259.592 291.223L259.912 291.876L259.96 291.849L259.592 291.223L259.912 291.876C259.913 291.872 260.168 291.763 260.599 291.651C261.356 291.447 262.619 291.235 264.083 291.051C265.185 290.909 266.408 290.775 267.691 290.608C269.623 290.352 271.665 290.059 273.845 289.405C274.939 289.071 276.079 288.641 277.273 287.971C278.459 287.3 279.732 286.359 280.828 284.969L280.825 284.973L275.047 280.421" fill="#D5312B"/>
<path d="M132.801 217.487C132.801 226.816 125.237 234.38 115.905 234.38C106.575 234.38 99.0093 226.816 99.0093 217.487C99.0093 208.153 106.575 200.589 115.905 200.589C125.237 200.589 132.801 208.153 132.801 217.487Z" fill="#302F2E"/>
<path d="M281.307 217.487C281.307 226.816 273.743 234.38 264.411 234.38C255.08 234.38 247.516 226.816 247.516 217.487C247.516 208.153 255.08 200.589 264.411 200.589C273.743 200.589 281.307 208.153 281.307 217.487Z" fill="#302F2E"/>
<path d="M201.161 260.701C201.157 263.757 199.939 266.471 197.937 268.48C195.928 270.481 193.215 271.7 190.159 271.704C187.103 271.7 184.389 270.481 182.38 268.48C180.379 266.471 179.16 263.757 179.156 260.701C179.156 257.447 176.517 254.808 173.263 254.808C170.008 254.808 167.369 257.447 167.369 260.701C167.367 266.976 169.929 272.709 174.044 276.815C178.149 280.931 183.884 283.493 190.159 283.491C196.433 283.493 202.168 280.931 206.273 276.815C210.388 272.709 212.951 266.976 212.948 260.701C212.948 257.447 210.309 254.808 207.055 254.808C203.8 254.808 201.161 257.447 201.161 260.701Z" fill="#302F2E"/>
</svg>
